/* XPM */
static char * preverr_xpm[] = {
"24 24 5 1",
" 	c None",
".	c #FF0000",
"+	c #FFFFFF",
"@	c #FF4F4F",
"#	c #000000",
" ...................... ",
"........................",
"........................",
"........................",
"@...+++++++++++++++@...@",
" ...@++++++##++++++@... ",
" @...++++++##++++++...@ ",
"  ...@+++++##+++++@...  ",
"  @...+++++##+++++...@  ",
"   ...@++++##++++@...   ",
"   @...++++##++++...@   ",
"    ...@+++##+++@...    ",
"    @...+++##+++...@    ",
"     ...@++++++@...     ",
"     @...++##++...@     ",
"      ...@+##+@...      ",
"      @...++++...@      ",
"       ...@++@...       ",
"       @...++...@       ",
"        ...@@...        ",
"        @......@        ",
"         ......         ",
"         @....@         ",
"          ....          "};
