/* XPM */
static char * prevwork_xpm[] = {
"24 24 7 1",
" 	c None",
".	c #F21110",
"+	c #FEADAD",
"@	c #FCD1D1",
"#	c #FBF2F2",
"$	c #FEFEFE",
"%	c #020202",
"           .            ",
"          ...           ",
"         .....          ",
"         .....          ",
"        ...+...         ",
"        ..@#@...        ",
"       ...#$$...        ",
"      ...+$$$#...       ",
"      ...#$$$$@..       ",
"     ...+$$$$$#...      ",
"     ...$$$$%%$@...     ",
"    ...@%%%%%%$@...     ",
"    ...$%$%%$$$$+...    ",
"   ...@$%$%%$$$$@...    ",
"   ..+$$$%%%$#$$$$...   ",
"  ...#$$%%%%$$$$$$$..   ",
"  ..+$$$%%%%%$$$$$$...  ",
" ...#$$%%$%$$%$%%%$$..  ",
" ..+$$$%$$%$$$%%%%%$... ",
"...@$$%%$$%$#%%%%%%%$.. ",
"..+$$$%$$$%%$%%%%%%%$...",
"..@$$###$$$$$#$$$$$$$#..",
"........................",
" ...................... "};
