/* XPM */
static char * prevwork_xpm[] = {
"24 24 9 1",
" 	c None",
".	c #FF0000",
"+	c #FF3232",
"@	c #FFB7B7",
"#	c #FFFFFF",
"$	c #000000",
"%	c #FFA8A8",
"&	c #FFD0D0",
"*	c #080000",
"           ..           ",
"          ....          ",
"         ......         ",
"         ......         ",
"        ...++...        ",
"        ...@@...        ",
"       ...+##+...       ",
"       ...@##@...       ",
"      ...+####+...      ",
"      ...@####@...      ",
"     ...+###$$#+...     ",
"     ...$$$$$$#@...     ",
"    ...+$#$$####+...    ",
"    ...@$#$$####%...    ",
"   ...+##$$$#####+...   ",
"   ...%#$$$$#####&...   ",
"  ...+##$$$$$#####+...  ",
"  ...@#$$#$##$#$$$@...  ",
" ...+##$##$###$$$$$+... ",
" ...@#$$##$##$$$$$$$... ",
"...+##$###$$#$$$$$$*+...",
"........................",
"........................",
" ...................... "};
