/* XPM */
static char * preview_xpm[] = {
"24 24 11 1",
" 	c None",
".	c #000000",
"+	c #181815",
"@	c #656559",
"#	c #969686",
"$	c #CECEB2",
"%	c #FFFFFF",
"&	c #B9B9A4",
"*	c #363630",
"=	c #818174",
"-	c #53534B",
"........................",
".$$$$$$$$$$$$$$$$$$$$$$.",
".$$$$$$$$$$@=$$$$$$$$$$.",
".$$$$$$$$$&.#$$$$$$$$$$.",
".$$$$$$$$$@=$$$$$$$$$$$.",
".$$$$$$$$&+@&$&&$$$$#$$.",
".$@....*=+@-.=@.#$$@+$$.",
".$$$##$$@=$$&$$&*$&.=$$.",
".$$$##$$#-*=$$$$==-*$$$.",
".$$$##$$=@@#$$$$$*.#$$$.",
".$$$#@&$@=$$##$$$+-$$$$.",
".$$$$+.$#.@-+$$$=.=$$$$.",
".&$$$&&$$&@=$$$$.@-$$$$.",
".$$&**$$$$$$$$$@+$-&$$$.",
" ..*@*$$$$$$$$&.#$&*@$$.",
"  &==*$$$$$$$$=*$$$#*$$.",
".  #=@*#$$$$$$$$$$$$$$$.",
".    @-+=$$$$$$$$$$$$$$.",
" .   ...***+&&$$$$$$$$$.",
" .    .   . ............",
"  .   .   .  . .  .   . ",
"  .   .   . .. .  .   . ",
"   .   ..  . .  ...    .",
"   .                   ."};
