/* XPM */
static char * preverr20_xpm[] = {
"20 20 17 1",
" 	c None",
".	c #292B28",
"+	c #FF0000",
"@	c #FF0008",
"#	c #4D4F4C",
"$	c #FF0F14",
"%	c #FF2D2C",
"&	c #FF3135",
"*	c #FF4342",
"=	c #FF4D4F",
"-	c #FF7171",
";	c #B7B9B6",
">	c #FF9B98",
",	c #FFAAA7",
"'	c #FFB8B7",
")	c #FFE5E2",
"!	c #FEFFFC",
"        @++@        ",
"       &$++$&       ",
"       $++++$       ",
"       @+%%+@       ",
"      %++''++%      ",
"      ++*))*++      ",
"     %+@';;'@+%     ",
"     ++=)..)=++     ",
"    $+$>!..!>$+$    ",
"   =@+=)!..!)=+@=   ",
"   @+$>!!..!!>$+@   ",
"  &$+*!!!..!!!*+$&  ",
"  $++'!!!..!!!'++$  ",
"  @+%!!!!;;!!!!%+@  ",
" %++'!!!!##!!!!'++% ",
" ++&)!!!!##!!!!)*++ ",
"%++$>,,,,,,,,,,,-++%",
"++++++++++++++++++++",
"++++++++++++++++++++",
" ++++++++++++++++++ "};
