/* XPM */
static char * preverr16_xpm[] = {
"16 16 17 1",
" 	c None",
".	c #FF0000",
"+	c #FF0007",
"@	c #FF0114",
"#	c #545553",
"$	c #FF1B14",
"%	c #FF1E1D",
"&	c #FF2F2E",
"*	c #FF3135",
"=	c #FF3E3E",
"-	c #FF5255",
";	c #8D8F8C",
">	c #FF787A",
",	c #FF8280",
"'	c #FFC3C5",
")	c #FED8D9",
"!	c #FEFFFC",
"      %..%      ",
"      @..@      ",
"     *.@@.*     ",
"     @.,,.@     ",
"    %.&))&.%    ",
"    @.>;;>.@    ",
"   *.@!##!@.*   ",
"   @.,!##!,.@   ",
"  %.&)!##!)&.%  ",
"  @.>!!##!!>.@  ",
" *.@!!!;;!!!@.* ",
" @.,!!!;;!!!,.@ ",
"%.$'!!!;;!!!)&.%",
"@.+=---------%.@",
"................",
"................"};
