/* XPM */
static char * preverr12_xpm[] = {
"12 12 9 1",
" 	c None",
".	c #FF0000",
"+	c #FF1A1A",
"@	c #808080",
"#	c #FF5454",
"$	c #BFBFBF",
"%	c #FFA7A7",
"&	c #FFD3D3",
"*	c #FFFFFF",
"     ..     ",
"    +..+    ",
"    .##.    ",
"   +.&&.+   ",
"   .#@@#.   ",
"  +.&@@&.+  ",
"  .#*@@*#.  ",
" +.&*@@*&.+ ",
" .#**$$**#. ",
"+.%**$$**&.+",
"............",
"............"};
