/* XPM */
static char * preverr_xpm[] = {
"24 24 5 1",
" 	c None",
".	c #FF0000",
"+	c #FF4F4F",
"@	c #FFFFFF",
"#	c #000000",
"          ....          ",
"         +....+         ",
"         ......         ",
"        +......+        ",
"        ...++...        ",
"       +...@@...+       ",
"       ...+@@+...       ",
"      +...@@@@...+      ",
"      ...+@##@+...      ",
"     +...@@##@@...+     ",
"     ...+@@##@@+...     ",
"    +...@@@##@@@...+    ",
"    ...+@@@##@@@+...    ",
"   +...@@@@##@@@@...+   ",
"   ...+@@@@##@@@@+...   ",
"  +...@@@@@##@@@@@...+  ",
"  ...+@@@@@@@@@@@@+...  ",
" +...@@@@@@##@@@@@@...+ ",
" ...+@@@@@@##@@@@@@+... ",
"+...+@@@@@@@@@@@@@@@...+",
"........................",
"........................",
"........................",
" ...................... "};
