/* XPM */
static char * prevwork12_xpm[] = {
"12 12 17 1",
" 	c None",
".	c #060804",
"+	c #3C0100",
"@	c #3F1D1D",
"#	c #8C080A",
"$	c #3D3C3A",
"%	c #DD0000",
"&	c #FF0000",
"*	c #C93F41",
"=	c #FE2D2D",
"-	c #FF5556",
";	c #898A87",
">	c #FC797A",
",	c #FF9595",
"'	c #CED0CC",
")	c #FFCDD0",
"!	c #FEFDFA",
"     &&     ",
"    &&&&    ",
"    &&&&    ",
"   &=))=    ",
"   &>!;*&   ",
"  &%@$.#&&  ",
"  &*;$!!-&  ",
" &&!;.;!,&& ",
" &&'..;$$&& ",
"&&)$!$;..+&&",
"&&-#>#####%&",
" &&&&&&&&&& "};
