/* XPM */
static char * prevwork16_xpm[] = {
"16 16 14 1",
" 	c None",
".	c #FF0000",
"+	c #FF0B0B",
"@	c #FF1F1F",
"#	c #FFFFFF",
"$	c #FFF7F7",
"%	c #FFDFDF",
"&	c #000000",
"*	c #FF1E1E",
"=	c #FFF5F5",
"-	c #FFEAEA",
";	c #E3E3E3",
">	c #020000",
",	c #AC1616",
"       ..       ",
"      ....      ",
"     ..++.      ",
"     ......     ",
"    ..@##@.     ",
"    ..#$$#..    ",
"   ..+%#&&+.    ",
"   ..&&&&&...   ",
"  ...&#&###*.   ",
"  ..##&&##=...  ",
" ..+##&&&##-+.  ",
" ...#&&&#&&&... ",
"..@#&##&;&&&&...",
"...$&;#&&&&&>,..",
"................",
" .............. "};
