/* XPM */
static char * prevwork20_xpm[] = {
"20 20 17 1",
" 	c None",
".	c #070501",
"+	c #560904",
"@	c #890101",
"#	c #2D2E2C",
"$	c #3F403E",
"%	c #FF0000",
"&	c #BD231F",
"*	c #5A5B59",
"=	c #FF2C2A",
"-	c #8A8B88",
";	c #FF8282",
">	c #B4B0AD",
",	c #FF9595",
"'	c #D5D7D4",
")	c #FFD8D7",
"!	c #FDFDFA",
"         %%         ",
"        %%%%        ",
"       %%%%%%       ",
"       %%==%%       ",
"       %%;;%%       ",
"      %%=))=%%      ",
"      %%,!!,%%      ",
"     %%=)!!)=%%     ",
"    %%%;!!*-;%%%    ",
"    %%&###.*)=%%    ",
"   %%%@-*.!!!;%%%   ",
"   %%=>-$.!!!)=%%   ",
"  %%%;'$..!!!!,%%%  ",
"  %%=)>...*!!!!=%%  ",
"  %%;'.*$>>*-##;%%  ",
" %%=)>*!*'!-....=%% ",
" %%,!.-!*-'.....+%% ",
"%%%;;@;;&@;@@@@@&%%%",
"%%%%%%%%%%%%%%%%%%%%",
" %%%%%%%%%%%%%%%%%% "};
