/* XPM */
static char * sep_xpm[] = {
"1 24 2 1",
" 	c None",
".	c #776758",
" ",
" ",
" ",
".",
".",
".",
".",
".",
".",
".",
".",
".",
".",
".",
".",
".",
".",
".",
".",
".",
".",
" ",
" ",
" "};
